<svg width="200" height="200" viewBox="0 0 200 200" fill="none" xmlns="http://www.w3.org/2000/svg">
  <!-- Background Circle -->
  <circle cx="100" cy="100" r="95" fill="#4F46E5" stroke="#6366F1" stroke-width="2"/>

  <!-- Lightning Bolt (Watts theme) -->
  <path d="M110 40L75 100H95L85 140L120 85H100L110 40Z" fill="#FCD34D" stroke="#F59E0B" stroke-width="2" stroke-linejoin="round"/>

  <!-- Whistle (Coach theme) -->
  <g transform="translate(130, 50)">
    <ellipse cx="0" cy="0" rx="12" ry="10" fill="#E5E7EB" stroke="#9CA3AF" stroke-width="1.5"/>
    <circle cx="0" cy="0" r="4" fill="#6B7280"/>
    <line x1="-10" y1="-8" x2="-18" y2="-14" stroke="#9CA3AF" stroke-width="2" stroke-linecap="round"/>
  </g>

  <!-- Dumbbell -->
  <g transform="translate(100, 155)">
    <rect x="-25" y="-3" width="50" height="6" rx="2" fill="#E5E7EB" stroke="#9CA3AF" stroke-width="1.5"/>
    <rect x="-32" y="-8" width="10" height="16" rx="2" fill="#6B7280" stroke="#4B5563" stroke-width="1.5"/>
    <rect x="22" y="-8" width="10" height="16" rx="2" fill="#6B7280" stroke="#4B5563" stroke-width="1.5"/>
  </g>

  <!-- Energy Waves -->
  <path d="M40 100Q50 95 60 100T80 100" stroke="#34D399" stroke-width="2.5" stroke-linecap="round" fill="none" opacity="0.7"/>
  <path d="M120 100Q130 95 140 100T160 100" stroke="#34D399" stroke-width="2.5" stroke-linecap="round" fill="none" opacity="0.7"/>

  <!-- Text -->
  <text x="100" y="185" font-family="Arial, sans-serif" font-size="16" font-weight="bold" fill="#FFFFFF" text-anchor="middle">COACH WATTS</text>
</svg>
